<svg width="1001" height="601" viewBox="0 0 1001 601" fill="none" xmlns="http://www.w3.org/2000/svg">
<path d="M167.527 250.5C167.527 156.219 167.527 109.079 216.343 79.7892C265.159 50.5 343.726 50.5 500.861 50.5C657.994 50.5 736.565 50.5 785.377 79.7892C834.194 109.079 834.194 156.219 834.194 250.5V350.5C834.194 444.78 834.194 491.922 785.377 521.21C736.565 550.5 657.994 550.5 500.861 550.5C343.726 550.5 265.159 550.5 216.343 521.21C167.527 491.922 167.527 444.78 167.527 350.5V250.5Z" stroke="#493D87" stroke-width="68"/>
<path d="M333.992 301.167C333.992 254.026 333.992 230.456 348.636 215.811C363.282 201.167 386.852 201.167 433.992 201.167H467.326C514.466 201.167 538.035 201.167 552.682 215.811C567.325 230.456 567.326 254.026 567.326 301.167C567.326 348.307 567.325 371.877 552.682 386.522C538.035 401.166 514.466 401.166 467.326 401.166H433.992C386.852 401.166 363.282 401.166 348.636 386.522C333.992 371.877 333.992 348.307 333.992 301.167Z" stroke="#493D87" stroke-width="50"/>
<path d="M567.324 259.5L621.171 237.064C642.044 228.366 652.481 224.018 659.904 228.965C667.324 233.913 667.324 245.22 667.324 267.833V334.5C667.324 357.113 667.324 368.419 659.904 373.367C652.481 378.315 642.044 373.966 621.171 365.269L567.324 342.833V259.5Z" stroke="#493D87" stroke-width="50"/>
</svg>
